<?xml version="1.0" standalone="no"?><!DOCTYPE svg PUBLIC "-//W3C//DTD SVG 1.1//EN" "http://www.w3.org/Graphics/SVG/1.1/DTD/svg11.dtd"><svg t="1626006371618" class="icon" viewBox="0 0 1024 1024" version="1.1" xmlns="http://www.w3.org/2000/svg" p-id="5202" xmlns:xlink="http://www.w3.org/1999/xlink" width="200" height="200"><defs><style type="text/css"></style></defs><path d="M768 128h-42.666667c0-46.933333-38.4-85.333333-85.333333-85.333333H384c-46.933333 0-85.333333 38.4-85.333333 85.333333H256C183.466667 128 128 183.466667 128 256v597.333333c0 72.533333 55.466667 128 128 128h512c72.533333 0 128-55.466667 128-128V256c0-72.533333-55.466667-128-128-128zM384 128h256v85.333333H384V128z m426.666667 725.333333c0 25.6-17.066667 42.666667-42.666667 42.666667H256c-25.6 0-42.666667-17.066667-42.666667-42.666667V256c0-25.6 17.066667-42.666667 42.666667-42.666667h42.666667c0 46.933333 38.4 85.333333 85.333333 85.333334h256c46.933333 0 85.333333-38.4 85.333333-85.333334h42.666667c25.6 0 42.666667 17.066667 42.666667 42.666667v597.333333z" p-id="5203" fill="#a310fa"></path></svg>